<?xml version="1.0" encoding="utf-8"?>
<!-- Generator: Adobe Illustrator 19.1.0, SVG Export Plug-In . SVG Version: 6.00 Build 0)  -->
<svg version="1.1" id="Layer_1" xmlns="http://www.w3.org/2000/svg" xmlns:xlink="http://www.w3.org/1999/xlink" x="0px" y="0px"
	 viewBox="-254 195.2 500 500" style="enable-background:new -254 195.2 500 500;" xml:space="preserve">
<style type="text/css">
	.st0{fill:#17D4BB;}
	.st1{fill:#BDFFFF;}
</style>
<circle class="st0" cx="-4" cy="445.2" r="250"/>
<g id="XMLID_1_">
	<path id="XMLID_4_" class="st1" d="M-33.9,602.6c-11.5,0-22.9-0.6-34.3-1.9c-7.8-0.9-14.1-1.9-19.6-3.3
		c-13.1-3.3-23.7-11.8-29-23.4l-0.8-1.6c-0.7-1.6-1.3-3.3-1.7-5c-13.1-60.2-8.5-122.7,13.2-180.8c13.8-37,32.4-62.2,56.7-77
		c19.6-12,42.8-17,62.9-20.4c25.2-4.2,47.2,0.9,71.5,16.6c14.9,9.6,25.8,23.2,30.7,38.1c5.1,15.8,3.6,32.1-4.6,47.2l-2,3.7l-4.2-0.6
		c-12.7-1.9-18.8-12.1-24.1-21.2c-3.3-5.6-6.4-10.8-10.7-14.1c-4.6-3.6-11-4.7-18-3.2c-9,1.9-17.4,7.8-21.3,15
		c-4,7.3-8.3,20.1-0.1,47.7c4.9,16.4,11.6,32.9,18.2,48.8c12.5,30.5,25.5,61.9,26.2,95.4c0.1,6.5-0.4,13.9-5.6,19.6
		c-4.2,4.6-10.1,6.6-15.4,8.1C25.8,598.5-4.1,602.6-33.9,602.6z M-106.7,567.4l0.8,1.7c3.8,8.2,11.4,14.3,21,16.7
		c5,1.2,10.7,2.2,18,3c39.3,4.3,80,0.8,117.7-10c3.9-1.1,7.8-2.4,9.8-4.6c2.4-2.6,2.6-7,2.5-11.3c-0.7-31.2-12.6-60.3-25.3-91.1
		c-6.7-16.2-13.6-32.9-18.6-49.9c-4.5-15.3-9.3-37.8,1.1-56.9c5.7-10.3,16.9-18.4,29.4-21c10.5-2.2,20.3-0.3,27.8,5.5
		c6.2,4.7,10,11.2,13.7,17.5c4.1,6.9,7.2,11.8,11.5,14.1c10-23.4,0.6-49.1-24.2-65.1c-21.9-14.1-40.7-18.6-63-14.9
		c-19,3.2-40.8,7.9-58.7,18.8c-22,13.4-38.9,36.6-51.7,71c-20.9,55.8-25.3,116-12.7,173.9C-107.4,565.7-107.1,566.6-106.7,567.4
		L-106.7,567.4z"/>
	<path id="XMLID_8_" class="st1" d="M44,588.2l-11.5-3.4c7.4-25-2.1-53.1-9.7-75.6L6,459.8c-2.3-6.7-4.6-13.6-6.3-20.7
		C-3.8,425-4.7,410.8-5,400c-0.3-9.8-0.5-21.3,2.8-32.5c3.6-12.5,10.9-22.6,20.7-28.6c14.9-9.1,40.4-3.3,53.8,7.5l-7.5,9.3
		c-9.9-8-30-12.7-40.1-6.6c-7.2,4.4-12.7,12.1-15.4,21.7c-2.7,9.5-2.6,19.9-2.3,28.8c0.4,10.2,1.2,23.6,4.4,36.7
		c1.6,6.6,3.9,13.2,6,19.7l16.7,49.4C42.3,529.5,52.4,559.6,44,588.2z"/>
</g>
<path id="XMLID_20_" class="st1" d="M-49.6,524.6c-20.8,0-37.6,11.2-37.6,24.9c0,13.8,16.8,24.9,37.6,24.9S-12,563.2-12,549.5
	C-12,535.8-28.8,524.6-49.6,524.6z M-49.6,557.4c-6.9,0-12.4-3.5-12.4-7.8s5.6-7.8,12.4-7.8c6.9,0,12.4,3.5,12.4,7.8
	C-37.1,553.9-42.7,557.4-49.6,557.4z"/>
<path id="XMLID_19_" class="st1" d="M-57.9,447.8c-17.9,0-32.5,9.6-32.5,21.5s14.5,21.5,32.5,21.5s32.5-9.6,32.5-21.5
	S-40,447.8-57.9,447.8z M-57.9,475.9c-5.7,0-10.4-2.9-10.4-6.5s4.7-6.6,10.4-6.6s10.4,2.9,10.4,6.5S-52.2,475.9-57.9,475.9z"/>
<path id="XMLID_18_" class="st1" d="M-49.4,379.9c-15-1.5-28.1,5.3-29.3,15.2c-1.2,9.9,10,19.2,25,20.7s28.1-5.3,29.3-15.2
	S-34.5,381.4-49.4,379.9z M-52.3,403.8c-4.9-0.5-8.6-3.5-8.2-6.8c0.4-3.3,4.7-5.5,9.6-5s8.6,3.5,8.2,6.8
	C-43.1,402-47.4,404.3-52.3,403.8z"/>
<path id="XMLID_17_" class="st1" d="M-18.6,327c-11.4-3.7-23-0.5-25.8,7.1c-2.8,7.6,4.1,16.7,15.5,20.3c11.4,3.7,23,0.5,25.8-7.1
	C-0.2,339.7-7.2,330.6-18.6,327z M-16.7,343.3c-1,2.7-5.2,3.9-9.3,2.5c-4.1-1.3-6.6-4.6-5.6-7.3c1-2.7,5.2-3.9,9.3-2.5
	C-18.2,337.4-15.7,340.6-16.7,343.3z"/>
<path id="XMLID_16_" class="st1" d="M33.5,310.1c-6.2-6.1-15.1-7.9-19.8-3.8c-4.8,4.1-3.6,12.4,2.6,18.5s15.1,7.9,19.8,3.8
	C40.9,324.5,39.7,316.3,33.5,310.1z M28.3,320.8c-1.4,1.3-4.1,0.7-6.1-1.2c-1.8-1.8-2.2-4.4-0.8-5.5c1.4-1.3,4.1-0.7,6.1,1.2
	C29.3,317.1,29.7,319.6,28.3,320.8z"/>
<path id="XMLID_2_" class="st1" d="M84.4,329.5c-2-6.9-7.8-11.7-12.8-10.6c-5.1,1.1-7.5,7.6-5.5,14.5c2,6.9,7.8,11.7,12.8,10.6
	C84,342.8,86.4,336.4,84.4,329.5z M76.3,335.2c-1.5,0.4-3.3-1.1-3.9-3.3c-0.6-2.1,0.1-4,1.6-4.3c1.5-0.4,3.3,1.1,3.9,3.3
	C78.6,332.9,77.8,334.9,76.3,335.2z"/>
</svg>
