<?xml version="1.0" encoding="utf-8"?>
<!-- Generator: Adobe Illustrator 19.1.0, SVG Export Plug-In . SVG Version: 6.00 Build 0)  -->
<svg version="1.1" id="Layer_1" xmlns="http://www.w3.org/2000/svg" xmlns:xlink="http://www.w3.org/1999/xlink" x="0px" y="0px"
	 viewBox="-364 478.4 245.3 314.8" style="enable-background:new -364 478.4 245.3 314.8;" xml:space="preserve">
<style type="text/css">
	.st0{fill:#17D4BB;}
</style>
<g id="XMLID_1_">
	<path id="XMLID_4_" class="st0" d="M-271.3,793.2c-11.5,0-22.9-0.6-34.3-1.9c-7.8-0.9-14.1-1.9-19.6-3.3
		c-13.1-3.3-23.7-11.8-29-23.4l-0.8-1.6c-0.7-1.6-1.3-3.3-1.7-5c-13.1-60.2-8.5-122.7,13.2-180.8c13.8-37,32.4-62.2,56.7-77
		c19.6-12,42.8-17,62.9-20.4c25.2-4.2,47.2,0.9,71.5,16.6c14.9,9.6,25.8,23.2,30.7,38.1c5.1,15.8,3.6,32.1-4.6,47.2l-2,3.7l-4.2-0.6
		c-12.7-1.9-18.8-12.1-24.1-21.2c-3.3-5.6-6.4-10.8-10.7-14.1c-4.6-3.6-11-4.7-18-3.2c-9,1.9-17.4,7.8-21.3,15
		c-4,7.3-8.3,20.1-0.1,47.7c4.9,16.4,11.6,32.9,18.2,48.8c12.5,30.5,25.5,61.9,26.2,95.4c0.1,6.5-0.4,13.9-5.6,19.6
		c-4.2,4.6-10.1,6.6-15.4,8.1C-211.6,789.1-241.5,793.2-271.3,793.2z M-344.1,758l0.8,1.7c3.8,8.2,11.4,14.3,21,16.7
		c5,1.2,10.7,2.2,18,3c39.3,4.3,80,0.8,117.7-10c3.9-1.1,7.8-2.4,9.8-4.6c2.4-2.6,2.6-7,2.5-11.3c-0.7-31.2-12.6-60.3-25.3-91.1
		c-6.7-16.2-13.6-32.9-18.6-49.9c-4.5-15.3-9.3-37.8,1.1-56.9c5.7-10.3,16.9-18.4,29.4-21c10.5-2.2,20.3-0.3,27.8,5.5
		c6.2,4.7,10,11.2,13.7,17.5c4.1,6.9,7.2,11.8,11.5,14.1c10-23.4,0.6-49.1-24.2-65.1c-21.9-14.1-40.7-18.6-63-14.9
		c-19,3.2-40.8,7.9-58.7,18.8c-22,13.4-38.9,36.6-51.7,71c-20.9,55.8-25.3,116-12.7,173.9C-344.8,756.3-344.5,757.2-344.1,758
		L-344.1,758z"/>
	<path id="XMLID_8_" class="st0" d="M-193.4,778.8l-11.5-3.4c7.4-25-2.1-53.1-9.7-75.6l-16.8-49.4c-2.3-6.7-4.6-13.6-6.3-20.7
		c-3.5-14.1-4.4-28.3-4.7-39.1c-0.3-9.8-0.5-21.3,2.8-32.5c3.6-12.5,10.9-22.6,20.7-28.6c14.9-9.1,40.4-3.3,53.8,7.5l-7.5,9.3
		c-9.9-8-30-12.7-40.1-6.6c-7.2,4.4-12.7,12.1-15.4,21.7c-2.7,9.5-2.6,19.9-2.3,28.8c0.4,10.2,1.2,23.6,4.4,36.7
		c1.6,6.6,3.9,13.2,6,19.7l16.7,49.4C-195.1,720.1-185,750.2-193.4,778.8z"/>
</g>
<path id="XMLID_20_" class="st0" d="M-287,715.2c-20.8,0-37.6,11.2-37.6,24.9c0,13.8,16.8,24.9,37.6,24.9s37.6-11.2,37.6-24.9
	C-249.4,726.4-266.2,715.2-287,715.2z M-287,748c-6.9,0-12.4-3.5-12.4-7.8s5.6-7.8,12.4-7.8c6.9,0,12.4,3.5,12.4,7.8
	C-274.5,744.5-280.1,748-287,748z"/>
<path id="XMLID_19_" class="st0" d="M-295.3,638.4c-17.9,0-32.5,9.6-32.5,21.5c0,11.9,14.5,21.5,32.5,21.5s32.5-9.6,32.5-21.5
	C-262.8,648-277.4,638.4-295.3,638.4z M-295.3,666.5c-5.7,0-10.4-2.9-10.4-6.5c0-3.6,4.7-6.6,10.4-6.6c5.7,0,10.4,2.9,10.4,6.5
	C-284.9,663.5-289.6,666.5-295.3,666.5z"/>
<path id="XMLID_18_" class="st0" d="M-286.8,570.5c-15-1.5-28.1,5.3-29.3,15.2c-1.2,9.9,10,19.2,25,20.7s28.1-5.3,29.3-15.2
	C-260.6,581.3-271.9,572-286.8,570.5z M-289.7,594.4c-4.9-0.5-8.6-3.5-8.2-6.8s4.7-5.5,9.6-5s8.6,3.5,8.2,6.8
	C-280.5,592.6-284.8,594.9-289.7,594.4z"/>
<path id="XMLID_17_" class="st0" d="M-256,517.6c-11.4-3.7-23-0.5-25.8,7.1c-2.8,7.6,4.1,16.7,15.5,20.3c11.4,3.7,23,0.5,25.8-7.1
	C-237.6,530.3-244.6,521.2-256,517.6z M-254.1,533.9c-1,2.7-5.2,3.9-9.3,2.5c-4.1-1.3-6.6-4.6-5.6-7.3s5.2-3.9,9.3-2.5
	C-255.6,528-253.1,531.2-254.1,533.9z"/>
<path id="XMLID_16_" class="st0" d="M-203.8,500.7c-6.2-6.1-15.1-7.9-19.8-3.8c-4.8,4.1-3.6,12.4,2.6,18.5
	c6.2,6.1,15.1,7.9,19.8,3.8C-196.5,515.1-197.7,506.9-203.8,500.7z M-209.1,511.4c-1.4,1.3-4.1,0.7-6.1-1.2
	c-1.8-1.8-2.2-4.4-0.8-5.5c1.4-1.3,4.1-0.7,6.1,1.2C-208,507.7-207.7,510.2-209.1,511.4z"/>
<path id="XMLID_2_" class="st0" d="M-153,520.1c-2-6.9-7.8-11.7-12.8-10.6c-5.1,1.1-7.5,7.6-5.5,14.5c2,6.9,7.8,11.7,12.8,10.6
	C-153.4,533.4-151,527-153,520.1z M-161.1,525.8c-1.5,0.4-3.3-1.1-3.9-3.3c-0.6-2.1,0.1-4,1.6-4.3c1.5-0.4,3.3,1.1,3.9,3.3
	C-158.8,523.5-159.6,525.5-161.1,525.8z"/>
</svg>
