<?xml version="1.0" encoding="utf-8"?>
<!-- Generator: Adobe Illustrator 19.0.0, SVG Export Plug-In . SVG Version: 6.00 Build 0)  -->
<!DOCTYPE svg PUBLIC "-//W3C//DTD SVG 1.1//EN" "http://www.w3.org/Graphics/SVG/1.1/DTD/svg11.dtd">
<svg version="1.1" id="Layer_1" xmlns="http://www.w3.org/2000/svg" xmlns:xlink="http://www.w3.org/1999/xlink" x="0px" y="0px"
	 viewBox="0 0 500 500" enable-background="new 0 0 500 500" xml:space="preserve">
<g id="XMLID_35_">
	<ellipse id="XMLID_36_" fill="#4AC0B0" cx="204.4" cy="354.3" rx="12.4" ry="7.8"/>
	<ellipse id="XMLID_37_" fill="#4AC0B0" cx="196.1" cy="274.1" rx="10.4" ry="6.5"/>
	<path id="XMLID_38_" fill="#4AC0B0" d="M278.7,154c-7.2,4.4-12.7,12.1-15.4,21.7c-2.7,9.5-2.6,19.9-2.3,28.8
		c0.4,10.2,1.2,23.6,4.4,36.7c1.6,6.6,3.9,13.2,6,19.7l16.7,49.4c7.4,21.9,16.4,48.6,11.8,74.7c1.6-0.4,3.3-0.9,4.9-1.3
		c3.9-1.1,7.8-2.4,9.8-4.6c2.4-2.6,2.6-7,2.5-11.3c-0.7-31.2-12.6-60.3-25.3-91.1c-6.7-16.2-13.6-32.9-18.6-49.9
		c-4.5-15.3-9.3-37.8,1.1-56.9c4.3-7.9,11.9-14.5,20.9-18.3C288.9,150.7,282.9,151.4,278.7,154z"/>
	<path id="XMLID_39_" fill="#4AC0B0" d="M231.7,140.8c-4.1-1.3-8.3-0.2-9.3,2.5c-1,2.7,1.5,6,5.6,7.3c4.1,1.3,8.3,0.2,9.3-2.5
		C238.3,145.4,235.8,142.1,231.7,140.8z"/>
	<path id="XMLID_40_" fill="#4AC0B0" d="M201.7,208.6c4.9,0.5,9.2-1.7,9.6-5c0.4-3.3-3.3-6.3-8.2-6.8c-4.9-0.5-9.2,1.7-9.6,5
		C193.1,205,196.8,208.1,201.7,208.6z"/>
	<path id="XMLID_43_" fill="#4AC0B0" d="M250,0C111.9,0,0,111.9,0,250s111.9,250,250,250s250-111.9,250-250S388.1,0,250,0z
		 M365.1,195.9l-2,3.7l-4.2-0.6c-12.7-1.9-18.8-12.1-24.1-21.2c-3.3-5.6-6.4-10.8-10.7-14.1c-4.6-3.6-11-4.7-18-3.2
		c-9,1.9-17.4,7.8-21.3,15c-4,7.3-8.3,20.1-0.1,47.7c4.9,16.4,11.6,32.9,18.2,48.8c12.5,30.5,25.5,61.9,26.2,95.4
		c0.1,6.5-0.4,13.9-5.6,19.6c-4.2,4.6-10.1,6.6-15.4,8.1c-28.3,8.1-58.2,12.3-88,12.3c-11.5,0-22.9-0.6-34.3-1.9
		c-7.8-0.9-14.1-1.9-19.6-3.3c-13.1-3.3-23.7-11.8-29-23.4l-0.8-1.7c-0.7-1.6-1.3-3.3-1.7-5c-13.1-60.2-8.6-122.7,13.1-180.8
		c13.8-37,32.4-62.2,56.7-77c19.6-12,42.8-17,62.9-20.4c25.2-4.2,47.2,0.9,71.5,16.6c14.9,9.6,25.8,23.2,30.7,38.1
		C374.8,164.5,373.2,180.8,365.1,195.9z"/>
	<path id="XMLID_46_" fill="#4AC0B0" d="M332.5,120.7c-21.9-14.1-40.7-18.6-63-14.9c-19,3.2-40.8,7.9-58.7,18.8
		c-22,13.4-38.9,36.6-51.7,71c-20.9,55.9-25.3,116-12.7,174c0.2,0.9,0.5,1.7,0.9,2.6l0.8,1.7c3.8,8.2,11.4,14.3,21,16.7
		c5,1.2,10.7,2.2,18,3c33.1,3.6,67.3,1.7,99.8-5.5c6.5-24.6-2.7-52-10.2-74.1L260,264.6c-2.3-6.7-4.6-13.6-6.3-20.7
		c-3.5-14.1-4.4-28.3-4.7-39.1c-0.3-9.8-0.5-21.3,2.8-32.5c3.6-12.5,10.9-22.6,20.7-28.6c14.7-8.9,39.4-3.5,53.1,6.9
		c2.1,0.9,4.1,2.1,5.9,3.5c6.2,4.7,10,11.2,13.7,17.5c4.1,6.9,7.2,11.8,11.5,14.1C366.6,162.4,357.3,136.7,332.5,120.7z
		 M175.3,199.9c1.2-9.9,14.3-16.8,29.3-15.2c15,1.5,26.2,10.8,25,20.7s-14.3,16.8-29.3,15.2C185.3,219.2,174.1,209.9,175.3,199.9z
		 M196.1,252.6c17.9,0,32.5,9.6,32.5,21.5c0,11.9-14.5,21.5-32.5,21.5s-32.5-9.6-32.5-21.5C163.6,262.2,178.1,252.6,196.1,252.6z
		 M204.4,379.3c-20.8,0-37.6-11.2-37.6-24.9c0-13.8,16.8-24.9,37.6-24.9c20.8,0,37.6,11.2,37.6,24.9
		C242,368.1,225.1,379.3,204.4,379.3z M250.9,152.1c-2.8,7.6-14.4,10.7-25.8,7.1c-11.4-3.7-18.3-12.8-15.5-20.3
		c2.8-7.6,14.4-10.7,25.8-7.1C246.8,135.4,253.8,144.5,250.9,152.1z M295.7,132.6c-4.7,4.5-13.9,3.2-20.6-2.8
		c-6.7-6-8.4-14.5-3.7-19c4.7-4.5,13.9-3.2,20.6,2.8C298.7,119.7,300.3,128.1,295.7,132.6z"/>
	<path id="XMLID_51_" fill="#4AC0B0" d="M279.8,118.4c-1.4,1.4-0.9,3.9,1.1,5.7c2,1.8,4.8,2.2,6.3,0.9c1.4-1.4,0.9-3.9-1.1-5.7
		C284,117.5,281.2,117.1,279.8,118.4z"/>
</g>
</svg>
