<?xml version="1.0" encoding="utf-8"?>
<!-- Generator: Adobe Illustrator 19.0.0, SVG Export Plug-In . SVG Version: 6.00 Build 0)  -->
<!DOCTYPE svg PUBLIC "-//W3C//DTD SVG 1.1//EN" "http://www.w3.org/Graphics/SVG/1.1/DTD/svg11.dtd">
<svg version="1.1" id="Layer_1" xmlns="http://www.w3.org/2000/svg" xmlns:xlink="http://www.w3.org/1999/xlink" x="0px" y="0px"
	 viewBox="0 0 245.3 314.8" enable-background="new 0 0 245.3 314.8" xml:space="preserve">
<g id="XMLID_1_">
	<path id="XMLID_4_" fill="#4AC0B0" d="M92.7,314.8c-11.5,0-22.9-0.6-34.3-1.9c-7.8-0.9-14.1-1.9-19.6-3.3
		c-13.1-3.3-23.7-11.8-29-23.4L9,284.6c-0.7-1.6-1.3-3.3-1.7-5C-5.8,219.4-1.2,156.9,20.5,98.8c13.8-37,32.4-62.2,56.7-77
		c19.6-12,42.8-17,62.9-20.4c25.2-4.2,47.2,0.9,71.5,16.6c14.9,9.6,25.8,23.2,30.7,38.1c5.1,15.8,3.6,32.1-4.6,47.2l-2,3.7l-4.2-0.6
		c-12.7-1.9-18.8-12.1-24.1-21.2c-3.3-5.6-6.4-10.8-10.7-14.1c-4.6-3.6-11-4.7-18-3.2c-9,1.9-17.4,7.8-21.3,15
		c-4,7.3-8.3,20.1-0.1,47.7c4.9,16.4,11.6,32.9,18.2,48.8c12.5,30.5,25.5,61.9,26.2,95.4c0.1,6.5-0.4,13.9-5.6,19.6
		c-4.2,4.6-10.1,6.6-15.4,8.1C152.4,310.7,122.5,314.8,92.7,314.8z M19.9,279.6l0.8,1.7c3.8,8.2,11.4,14.3,21,16.7
		c5,1.2,10.7,2.2,18,3c39.3,4.3,80,0.8,117.7-10c3.9-1.1,7.8-2.4,9.8-4.6c2.4-2.6,2.6-7,2.5-11.3c-0.7-31.2-12.6-60.3-25.3-91.1
		c-6.7-16.2-13.6-32.9-18.6-49.9c-4.5-15.3-9.3-37.8,1.1-56.9c5.7-10.3,16.9-18.4,29.4-21c10.5-2.2,20.3-0.3,27.8,5.5
		c6.2,4.7,10,11.2,13.7,17.5c4.1,6.9,7.2,11.8,11.5,14.1c10-23.4,0.6-49.1-24.2-65.1c-21.9-14.1-40.7-18.6-63-14.9
		c-19,3.2-40.8,7.9-58.7,18.8c-22,13.4-38.9,36.6-51.7,71C10.8,158.9,6.4,219.1,19,277C19.2,277.9,19.5,278.8,19.9,279.6L19.9,279.6
		z"/>
	<path id="XMLID_8_" fill="#4AC0B0" d="M170.6,300.4l-11.5-3.4c7.4-25-2.1-53.1-9.7-75.6L132.6,172c-2.3-6.7-4.6-13.6-6.3-20.7
		c-3.5-14.1-4.4-28.3-4.7-39.1c-0.3-9.8-0.5-21.3,2.8-32.5c3.6-12.5,10.9-22.6,20.7-28.6c14.9-9.1,40.4-3.3,53.8,7.5l-7.5,9.3
		c-9.9-8-30-12.7-40.1-6.6c-7.2,4.4-12.7,12.1-15.4,21.7c-2.7,9.5-2.6,19.9-2.3,28.8c0.4,10.2,1.2,23.6,4.4,36.7
		c1.6,6.6,3.9,13.2,6,19.7l16.7,49.4C168.9,241.7,179,271.8,170.6,300.4z"/>
</g>
<path id="XMLID_20_" fill="#4AC0B0" d="M77,236.8c-20.8,0-37.6,11.2-37.6,24.9c0,13.8,16.8,24.9,37.6,24.9
	c20.8,0,37.6-11.2,37.6-24.9C114.6,248,97.8,236.8,77,236.8z M77,269.6c-6.9,0-12.4-3.5-12.4-7.8c0-4.3,5.6-7.8,12.4-7.8
	c6.9,0,12.4,3.5,12.4,7.8C89.5,266.1,83.9,269.6,77,269.6z"/>
<path id="XMLID_19_" fill="#4AC0B0" d="M68.7,160c-17.9,0-32.5,9.6-32.5,21.5s14.5,21.5,32.5,21.5s32.5-9.6,32.5-21.5
	S86.6,160,68.7,160z M68.7,188.1c-5.7,0-10.4-2.9-10.4-6.5S63,175,68.7,175c5.7,0,10.4,2.9,10.4,6.5S74.4,188.1,68.7,188.1z"/>
<path id="XMLID_18_" fill="#4AC0B0" d="M77.2,92.1c-15-1.5-28.1,5.3-29.3,15.2c-1.2,9.9,10,19.2,25,20.7c15,1.5,28.1-5.3,29.3-15.2
	S92.1,93.6,77.2,92.1z M74.3,116c-4.9-0.5-8.6-3.5-8.2-6.8s4.7-5.5,9.6-5c4.9,0.5,8.6,3.5,8.2,6.8C83.5,114.2,79.2,116.5,74.3,116z"
	/>
<path id="XMLID_17_" fill="#4AC0B0" d="M108,39.2c-11.4-3.7-23-0.5-25.8,7.1c-2.8,7.6,4.1,16.7,15.5,20.3c11.4,3.7,23,0.5,25.8-7.1
	C126.4,51.9,119.4,42.8,108,39.2z M109.9,55.5c-1,2.7-5.2,3.9-9.3,2.5c-4.1-1.3-6.6-4.6-5.6-7.3c1-2.7,5.2-3.9,9.3-2.5
	C108.4,49.6,110.9,52.8,109.9,55.5z"/>
<path id="XMLID_16_" fill="#4AC0B0" d="M164.6,21c-6.7-6-16-7.3-20.6-2.8c-4.7,4.5-3,13,3.7,19c6.7,6,16,7.3,20.6,2.8
	C173,35.5,171.3,27.1,164.6,21z M159.8,32.4c-1.4,1.4-4.2,1-6.3-0.9c-2-1.8-2.5-4.4-1.1-5.7c1.4-1.4,4.2-1,6.3,0.9
	C160.7,28.5,161.2,31.1,159.8,32.4z"/>
</svg>
